<svg version="1.1" viewBox="0.0 0.0 960.0 540.0" fill="none" stroke="none" stroke-linecap="square" stroke-miterlimit="10" xmlns:xlink="http://www.w3.org/1999/xlink" xmlns="http://www.w3.org/2000/svg"><clipPath id="gcafb13758b_0_55.0"><path d="m0 0l960.0 0l0 540.0l-960.0 0l0 -540.0z" clip-rule="nonzero"/></clipPath><g clip-path="url(#gcafb13758b_0_55.0)"><path fill="#ffffff" d="m0 0l960.0 0l0 540.0l-960.0 0z" fill-rule="evenodd"/><path fill="#000000" fill-opacity="0.0" d="m287.92914 234.04468l184.59842 -92.81889" fill-rule="evenodd"/><path stroke="#cc0000" stroke-width="3.0" stroke-linejoin="round" stroke-linecap="butt" d="m287.92914 234.04468l168.5169 -84.73285" fill-rule="evenodd"/><path fill="#cc0000" stroke="#cc0000" stroke-width="3.0" stroke-linecap="butt" d="m458.67203 153.73889l9.937256 -10.542938l-14.389252 1.6888123z" fill-rule="evenodd"/><path fill="#000000" fill-opacity="0.0" d="m286.87402 234.04468l183.52756 0" fill-rule="evenodd"/><path stroke="#6aa84f" stroke-width="3.0" stroke-linejoin="round" stroke-linecap="butt" d="m286.87402 234.04468l165.52756 0" fill-rule="evenodd"/><path fill="#6aa84f" stroke="#6aa84f" stroke-width="3.0" stroke-linecap="butt" d="m452.40158 238.99988l13.614288 -4.9552l-13.614288 -4.9552z" fill-rule="evenodd"/><path fill="#000000" fill-opacity="0.0" d="m471.44357 233.26393l111.811005 -75.055115" fill-rule="evenodd"/><path stroke="#595959" stroke-width="3.0" stroke-linejoin="round" stroke-linecap="butt" d="m471.44357 233.26395l96.86594 -65.022964" fill-rule="evenodd"/><path fill="#595959" stroke="#595959" stroke-width="3.0" stroke-linecap="butt" d="m571.0712 172.3552l8.541992 -11.702042l-14.06543 3.4736023z" fill-rule="evenodd"/><path fill="#000000" fill-opacity="0.0" d="m469.33334 234.04468l116.03146 -17.952759" fill-rule="evenodd"/><path stroke="#595959" stroke-width="3.0" stroke-linejoin="round" stroke-linecap="butt" d="m469.33334 234.04468l98.24313 -15.20047" fill-rule="evenodd"/><path fill="#595959" stroke="#595959" stroke-width="3.0" stroke-linecap="butt" d="m568.33417 223.74112l12.696533 -6.978607l-14.211853 -2.8152466z" fill-rule="evenodd"/><path fill="#000000" fill-opacity="0.0" d="m471.44357 234.04468l113.921234 31.653534" fill-rule="evenodd"/><path stroke="#3c78d8" stroke-width="3.0" stroke-linejoin="round" stroke-linecap="butt" d="m471.44357 234.04468l96.57828 26.834717" fill-rule="evenodd"/><path fill="#3c78d8" stroke="#3c78d8" stroke-width="3.0" stroke-linecap="butt" d="m566.6953 265.65372l14.443909 -1.1296082l-11.7907715 -8.419037z" fill-rule="evenodd"/><path fill="#000000" fill-opacity="0.0" d="m471.44357 234.82349l112.85037 75.212585" fill-rule="evenodd"/><path stroke="#595959" stroke-width="3.0" stroke-linejoin="round" stroke-linecap="butt" d="m471.44357 234.82349l97.87222 65.22992" fill-rule="evenodd"/><path fill="#595959" stroke="#595959" stroke-width="3.0" stroke-linecap="butt" d="m566.5676 304.17676l14.076904 3.427063l-8.580627 -11.673737z" fill-rule="evenodd"/><path fill="#000000" fill-opacity="0.0" d="m287.92914 235.19423l184.56693 87.81102" fill-rule="evenodd"/><path stroke="#6aa84f" stroke-width="3.0" stroke-linejoin="round" stroke-linecap="butt" d="m287.92914 235.19423l168.31277 80.077805" fill-rule="evenodd"/><path fill="#6aa84f" stroke="#6aa84f" stroke-width="3.0" stroke-linecap="butt" d="m454.11304 319.74664l14.422699 1.3744202l-10.1649475 -10.323608z" fill-rule="evenodd"/><path fill="#000000" fill-opacity="0.0" d="m287.92914 232.69995l183.55905 -190.51968" fill-rule="evenodd"/><path stroke="#cc0000" stroke-width="3.0" stroke-linejoin="round" stroke-linecap="butt" d="m287.92914 232.69995l171.07013 -177.55719" fill-rule="evenodd"/><path fill="#cc0000" stroke="#cc0000" stroke-width="3.0" stroke-linecap="butt" d="m462.5677 58.58083l5.8775635 -13.242249l-13.014435 6.366127z" fill-rule="evenodd"/><path fill="#000000" fill-opacity="0.0" d="m287.92914 233.64346l185.63779 182.96063" fill-rule="evenodd"/><path stroke="#cc0000" stroke-width="3.0" stroke-linejoin="round" stroke-linecap="butt" d="m287.92914 233.64345l172.81775 170.32552" fill-rule="evenodd"/><path fill="#cc0000" stroke="#cc0000" stroke-width="3.0" stroke-linecap="butt" d="m457.2686 407.49814l13.174744 6.0273743l-6.218109 -13.085785z" fill-rule="evenodd"/><path fill="#000000" fill-opacity="0.0" d="m477.14172 459.84253c0 5.592407 -4.533539 10.125977 -10.125977 10.125977l-77.20206 0c-5.5924377 0 -10.125977 4.5335693 -10.125977 10.125977l0 0c0 -5.592407 -4.5335693 -10.125977 -10.126007 -10.125977l-75.08139 0l0 0c-5.5924377 0 -10.125977 -4.5335693 -10.125977 -10.125977z" fill-rule="evenodd"/><path fill="#000000" fill-opacity="0.0" d="m477.14172 459.84253c0 5.592407 -4.533539 10.125977 -10.125977 10.125977l-77.20206 0c-5.5924377 0 -10.125977 4.5335693 -10.125977 10.125977l0 0c0 -5.592407 -4.5335693 -10.125977 -10.126007 -10.125977l-75.08139 0l0 0c-5.5924377 0 -10.125977 -4.5335693 -10.125977 -10.125977" fill-rule="evenodd"/><path stroke="#595959" stroke-width="2.0" stroke-linejoin="round" stroke-linecap="butt" d="m477.14172 459.84253c0 5.592407 -4.533539 10.125977 -10.125977 10.125977l-77.20206 0c-5.5924377 0 -10.125977 4.5335693 -10.125977 10.125977l0 0c0 -5.592407 -4.5335693 -10.125977 -10.126007 -10.125977l-75.08139 0l0 0c-5.5924377 0 -10.125977 -4.5335693 -10.125977 -10.125977" fill-rule="evenodd"/><path fill="#000000" fill-opacity="0.0" d="m585.3648 459.84253c0 5.592407 -4.5335083 10.125977 -10.125977 10.125977l-30.505005 0c-5.592407 0 -10.125977 4.5335693 -10.125977 10.125977l0 0c0 -5.592407 -4.5335693 -10.125977 -10.125977 -10.125977l-29.400513 0l0 0c-5.592407 0 -10.125977 -4.5335693 -10.125977 -10.125977z" fill-rule="evenodd"/><path fill="#000000" fill-opacity="0.0" d="m585.3648 459.84253c0 5.592407 -4.5335083 10.125977 -10.125977 10.125977l-30.505005 0c-5.592407 0 -10.125977 4.5335693 -10.125977 10.125977l0 0c0 -5.592407 -4.5335693 -10.125977 -10.125977 -10.125977l-29.400513 0l0 0c-5.592407 0 -10.125977 -4.5335693 -10.125977 -10.125977" fill-rule="evenodd"/><path stroke="#595959" stroke-width="2.0" stroke-linejoin="round" stroke-linecap="butt" d="m585.3648 459.84253c0 5.592407 -4.5335083 10.125977 -10.125977 10.125977l-30.505005 0c-5.592407 0 -10.125977 4.5335693 -10.125977 10.125977l0 0c0 -5.592407 -4.5335693 -10.125977 -10.125977 -10.125977l-29.400513 0l0 0c-5.592407 0 -10.125977 -4.5335693 -10.125977 -10.125977" fill-rule="evenodd"/><path fill="#000000" fill-opacity="0.0" d="m282.24408 491.52756l192.78741 0l0 48.472443l-192.78741 0z" fill-rule="evenodd"/><path fill="#000000" d="m334.04306 503.6413q1.609375 0 2.515625 0.78125q0.90625 0.765625 0.90625 2.109375q0 1.34375 -0.90625 2.109375q-0.90625 0.75 -2.515625 0.75l-2.265625 0l0 2.65625l-0.875 0l0 -8.40625l3.140625 0zm-0.03125 4.96875q1.25 0 1.90625 -0.546875q0.671875 -0.546875 0.671875 -1.53125q0 -1.03125 -0.671875 -1.5625q-0.65625 -0.546875 -1.90625 -0.546875l-2.234375 0l0 4.1875l2.234375 0zm7.3423157 -2.921875q1.234375 0 1.890625 0.625q0.671875 0.609375 0.671875 1.828125l0 3.90625l-0.8125 0l0 -0.984375q-0.296875 0.5 -0.859375 0.78125q-0.546875 0.265625 -1.3125 0.265625q-1.0625 0 -1.6875 -0.5q-0.625 -0.515625 -0.625 -1.34375q0 -0.796875 0.578125 -1.28125q0.59375 -0.5 1.859375 -0.5l2.0 0l0 -0.390625q0 -0.8125 -0.453125 -1.234375q-0.453125 -0.421875 -1.328125 -0.421875q-0.59375 0 -1.15625 0.203125q-0.546875 0.1875 -0.9375 0.53125l-0.390625 -0.640625q0.484375 -0.40625 1.15625 -0.625q0.671875 -0.21875 1.40625 -0.21875zm-0.296875 5.75q0.71875 0 1.234375 -0.328125q0.515625 -0.328125 0.765625 -0.953125l0 -1.03125l-1.96875 0q-1.625 0 -1.625 1.125q0 0.546875 0.421875 0.875q0.421875 0.3125 1.171875 0.3125zm5.1737976 -5.703125l0.859375 0l0 6.3125l-0.859375 0l0 -6.3125zm0.4375 -1.375q-0.265625 0 -0.453125 -0.171875q-0.171875 -0.1875 -0.171875 -0.4375q0 -0.25 0.171875 -0.421875q0.1875 -0.1875 0.453125 -0.1875q0.25 0 0.4375 0.171875q0.1875 0.171875 0.1875 0.421875q0 0.265625 -0.1875 0.453125q-0.1875 0.171875 -0.4375 0.171875zm3.6030273 2.609375q0.296875 -0.640625 0.890625 -0.953125q0.59375 -0.328125 1.484375 -0.328125l0 0.828125l-0.21875 -0.015625q-0.984375 0 -1.546875 0.625q-0.5625 0.609375 -0.5625 1.703125l0 3.21875l-0.859375 0l0 -6.3125l0.8125 0l0 1.234375zm5.639038 5.140625q-0.765625 0 -1.46875 -0.21875q-0.703125 -0.234375 -1.09375 -0.5625l0.390625 -0.671875q0.390625 0.3125 0.984375 0.515625q0.609375 0.1875 1.25 0.1875q0.859375 0 1.265625 -0.265625q0.421875 -0.265625 0.421875 -0.765625q0 -0.34375 -0.234375 -0.53125q-0.21875 -0.203125 -0.5625 -0.296875q-0.34375 -0.109375 -0.921875 -0.21875q-0.765625 -0.140625 -1.234375 -0.28125q-0.46875 -0.15625 -0.796875 -0.515625q-0.328125 -0.359375 -0.328125 -1.0q0 -0.796875 0.65625 -1.296875q0.65625 -0.5 1.828125 -0.5q0.609375 0 1.21875 0.171875q0.625 0.15625 1.015625 0.421875l-0.375 0.671875q-0.78125 -0.53125 -1.859375 -0.53125q-0.8125 0 -1.234375 0.296875q-0.40625 0.28125 -0.40625 0.75q0 0.359375 0.234375 0.578125q0.234375 0.203125 0.578125 0.3125q0.359375 0.09375 0.96875 0.203125q0.75 0.140625 1.203125 0.296875q0.46875 0.140625 0.78125 0.484375q0.328125 0.34375 0.328125 0.96875q0 0.828125 -0.6875 1.3125q-0.6875 0.484375 -1.921875 0.484375zm10.652679 -0.453125q-0.25 0.21875 -0.609375 0.34375q-0.34375 0.109375 -0.71875 0.109375q-0.890625 0 -1.375 -0.484375q-0.484375 -0.484375 -0.484375 -1.359375l0 -3.8125l-1.125 0l0 -0.71875l1.125 0l0 -1.375l0.859375 0l0 1.375l1.921875 0l0 0.71875l-1.921875 0l0 3.765625q0 0.5625 0.28125 0.859375q0.28125 0.296875 0.8125 0.296875q0.265625 0 0.5 -0.078125q0.25 -0.09375 0.4375 -0.25l0.296875 0.609375zm4.762665 -5.96875q1.1875 0 1.890625 0.6875q0.703125 0.6875 0.703125 2.015625l0 3.65625l-0.859375 0l0 -3.578125q0 -0.984375 -0.5 -1.5q-0.484375 -0.515625 -1.390625 -0.515625q-1.015625 0 -1.609375 0.609375q-0.59375 0.609375 -0.59375 1.671875l0 3.3125l-0.859375 0l0 -8.90625l0.859375 0l0 3.703125q0.34375 -0.5625 0.953125 -0.859375q0.609375 -0.296875 1.40625 -0.296875zm7.108429 0q1.234375 0 1.890625 0.625q0.671875 0.609375 0.671875 1.828125l0 3.90625l-0.8125 0l0 -0.984375q-0.296875 0.5 -0.859375 0.78125q-0.546875 0.265625 -1.3125 0.265625q-1.0625 0 -1.6875 -0.5q-0.625 -0.515625 -0.625 -1.34375q0 -0.796875 0.578125 -1.28125q0.59375 -0.5 1.859375 -0.5l2.0 0l0 -0.390625q0 -0.8125 -0.453125 -1.234375q-0.453125 -0.421875 -1.328125 -0.421875q-0.59375 0 -1.15625 0.203125q-0.546875 0.1875 -0.9375 0.53125l-0.390625 -0.640625q0.484375 -0.40625 1.15625 -0.625q0.671875 -0.21875 1.40625 -0.21875zm-0.296875 5.75q0.71875 0 1.234375 -0.328125q0.515625 -0.328125 0.765625 -0.953125l0 -1.03125l-1.96875 0q-1.625 0 -1.625 1.125q0 0.546875 0.421875 0.875q0.421875 0.3125 1.171875 0.3125zm8.501923 0.21875q-0.25 0.21875 -0.609375 0.34375q-0.34375 0.109375 -0.71875 0.109375q-0.890625 0 -1.375 -0.484375q-0.484375 -0.484375 -0.484375 -1.359375l0 -3.8125l-1.125 0l0 -0.71875l1.125 0l0 -1.375l0.859375 0l0 1.375l1.921875 0l0 0.71875l-1.921875 0l0 3.765625q0 0.5625 0.28125 0.859375q0.28125 0.296875 0.8125 0.296875q0.265625 0 0.5 -0.078125q0.25 -0.09375 0.4375 -0.25l0.296875 0.609375zm6.375458 0.453125q-0.765625 0 -1.46875 -0.21875q-0.703125 -0.234375 -1.09375 -0.5625l0.390625 -0.671875q0.390625 0.3125 0.984375 0.515625q0.609375 0.1875 1.25 0.1875q0.859375 0 1.265625 -0.265625q0.421875 -0.265625 0.421875 -0.765625q0 -0.34375 -0.234375 -0.53125q-0.21875 -0.203125 -0.5625 -0.296875q-0.34375 -0.109375 -0.921875 -0.21875q-0.765625 -0.140625 -1.234375 -0.28125q-0.46875 -0.15625 -0.796875 -0.515625q-0.328125 -0.359375 -0.328125 -1.0q0 -0.796875 0.65625 -1.296875q0.65625 -0.5 1.828125 -0.5q0.609375 0 1.21875 0.171875q0.625 0.15625 1.015625 0.421875l-0.375 0.671875q-0.78125 -0.53125 -1.859375 -0.53125q-0.8125 0 -1.234375 0.296875q-0.40625 0.28125 -0.40625 0.75q0 0.359375 0.234375 0.578125q0.234375 0.203125 0.578125 0.3125q0.359375 0.09375 0.96875 0.203125q0.75 0.140625 1.203125 0.296875q0.46875 0.140625 0.78125 0.484375q0.328125 0.34375 0.328125 0.96875q0 0.828125 -0.6875 1.3125q-0.6875 0.484375 -1.921875 0.484375zm6.383667 -6.421875q1.234375 0 1.890625 0.625q0.671875 0.609375 0.671875 1.828125l0 3.90625l-0.8125 0l0 -0.984375q-0.296875 0.5 -0.859375 0.78125q-0.546875 0.265625 -1.3125 0.265625q-1.0625 0 -1.6875 -0.5q-0.625 -0.515625 -0.625 -1.34375q0 -0.796875 0.578125 -1.28125q0.59375 -0.5 1.859375 -0.5l2.0 0l0 -0.390625q0 -0.8125 -0.453125 -1.234375q-0.453125 -0.421875 -1.328125 -0.421875q-0.59375 0 -1.15625 0.203125q-0.546875 0.1875 -0.9375 0.53125l-0.390625 -0.640625q0.484375 -0.40625 1.15625 -0.625q0.671875 -0.21875 1.40625 -0.21875zm-0.296875 5.75q0.71875 0 1.234375 -0.328125q0.515625 -0.328125 0.765625 -0.953125l0 -1.03125l-1.96875 0q-1.625 0 -1.625 1.125q0 0.546875 0.421875 0.875q0.421875 0.3125 1.171875 0.3125zm8.501923 0.21875q-0.25 0.21875 -0.609375 0.34375q-0.34375 0.109375 -0.71875 0.109375q-0.890625 0 -1.375 -0.484375q-0.484375 -0.484375 -0.484375 -1.359375l0 -3.8125l-1.125 0l0 -0.71875l1.125 0l0 -1.375l0.859375 0l0 1.375l1.921875 0l0 0.71875l-1.921875 0l0 3.765625q0 0.5625 0.28125 0.859375q0.28125 0.296875 0.8125 0.296875q0.265625 0 0.5 -0.078125q0.25 -0.09375 0.4375 -0.25l0.296875 0.609375zm1.5439148 -5.921875l0.859375 0l0 6.3125l-0.859375 0l0 -6.3125zm0.4375 -1.375q-0.265625 0 -0.453125 -0.171875q-0.171875 -0.1875 -0.171875 -0.4375q0 -0.25 0.171875 -0.421875q0.1875 -0.1875 0.453125 -0.1875q0.25 0 0.4375 0.171875q0.1875 0.171875 0.1875 0.421875q0 0.265625 -0.1875 0.453125q-0.1875 0.171875 -0.4375 0.171875zm4.477997 7.75q-0.765625 0 -1.46875 -0.21875q-0.703125 -0.234375 -1.09375 -0.5625l0.390625 -0.671875q0.390625 0.3125 0.984375 0.515625q0.609375 0.1875 1.25 0.1875q0.859375 0 1.265625 -0.265625q0.421875 -0.265625 0.421875 -0.765625q0 -0.34375 -0.234375 -0.53125q-0.21875 -0.203125 -0.5625 -0.296875q-0.34375 -0.109375 -0.921875 -0.21875q-0.765625 -0.140625 -1.234375 -0.28125q-0.46875 -0.15625 -0.796875 -0.515625q-0.328125 -0.359375 -0.328125 -1.0q0 -0.796875 0.65625 -1.296875q0.65625 -0.5 1.828125 -0.5q0.609375 0 1.21875 0.171875q0.625 0.15625 1.015625 0.421875l-0.375 0.671875q-0.78125 -0.53125 -1.859375 -0.53125q-0.8125 0 -1.234375 0.296875q-0.40625 0.28125 -0.40625 0.75q0 0.359375 0.234375 0.578125q0.234375 0.203125 0.578125 0.3125q0.359375 0.09375 0.96875 0.203125q0.75 0.140625 1.203125 0.296875q0.46875 0.140625 0.78125 0.484375q0.328125 0.34375 0.328125 0.96875q0 0.828125 -0.6875 1.3125q-0.6875 0.484375 -1.921875 0.484375zm6.274292 -8.3125q-0.5625 0 -0.84375 0.3125q-0.28125 0.296875 -0.28125 0.875l0 0.75l1.953125 0l0 0.71875l-1.921875 0l0 5.59375l-0.859375 0l0 -5.59375l-1.125 0l0 -0.71875l1.125 0l0 -0.78125q0 -0.859375 0.5 -1.359375q0.5 -0.515625 1.40625 -0.515625q0.359375 0 0.6875 0.109375q0.34375 0.09375 0.578125 0.296875l-0.28125 0.625q-0.375 -0.3125 -0.9375 -0.3125zm7.391144 1.9375l-3.140625 7.0625q-0.390625 0.890625 -0.90625 1.265625q-0.5 0.375 -1.203125 0.375q-0.453125 0 -0.859375 -0.15625q-0.390625 -0.140625 -0.671875 -0.421875l0.390625 -0.640625q0.484375 0.484375 1.15625 0.484375q0.4375 0 0.734375 -0.25q0.3125 -0.234375 0.578125 -0.8125l0.265625 -0.609375l-2.8125 -6.296875l0.890625 0l2.375 5.359375l2.375 -5.359375l0.828125 0z" fill-rule="nonzero"/><path fill="#000000" d="m350.34717 526.5257q-1.25 0 -2.25 -0.546875q-1.0 -0.5625 -1.578125 -1.53125q-0.5625 -0.984375 -0.5625 -2.203125q0 -1.203125 0.5625 -2.1875q0.578125 -0.984375 1.578125 -1.53125q1.015625 -0.546875 2.265625 -0.546875q0.9375 0 1.71875 0.3125q0.796875 0.3125 1.34375 0.90625l-0.5625 0.5625q-0.984375 -1.0 -2.484375 -1.0q-0.984375 0 -1.8125 0.46875q-0.8125 0.453125 -1.28125 1.25q-0.453125 0.78125 -0.453125 1.765625q0 0.984375 0.453125 1.78125q0.46875 0.796875 1.28125 1.25q0.828125 0.453125 1.8125 0.453125q1.515625 0 2.484375 -1.015625l0.5625 0.578125q-0.546875 0.59375 -1.34375 0.921875q-0.796875 0.3125 -1.734375 0.3125zm7.1020813 -0.015625q-0.90625 0 -1.640625 -0.40625q-0.734375 -0.421875 -1.15625 -1.15625q-0.421875 -0.734375 -0.421875 -1.65625q0 -0.921875 0.421875 -1.65625q0.421875 -0.734375 1.15625 -1.140625q0.734375 -0.40625 1.640625 -0.40625q0.921875 0 1.640625 0.40625q0.734375 0.40625 1.140625 1.140625q0.421875 0.734375 0.421875 1.65625q0 0.921875 -0.421875 1.65625q-0.40625 0.734375 -1.140625 1.15625q-0.71875 0.40625 -1.640625 0.40625zm0 -0.765625q0.671875 0 1.203125 -0.296875q0.546875 -0.3125 0.84375 -0.875q0.296875 -0.5625 0.296875 -1.28125q0 -0.71875 -0.296875 -1.28125q-0.296875 -0.5625 -0.84375 -0.859375q-0.53125 -0.3125 -1.203125 -0.3125q-0.671875 0 -1.203125 0.3125q-0.53125 0.296875 -0.84375 0.859375q-0.296875 0.5625 -0.296875 1.28125q0 0.71875 0.296875 1.28125q0.3125 0.5625 0.84375 0.875q0.53125 0.296875 1.203125 0.296875zm8.164673 -5.65625q1.1875 0 1.890625 0.6875q0.703125 0.6875 0.703125 2.015625l0 3.65625l-0.859375 0l0 -3.578125q0 -0.984375 -0.5 -1.5q-0.484375 -0.515625 -1.390625 -0.515625q-1.015625 0 -1.609375 0.609375q-0.59375 0.609375 -0.59375 1.671875l0 3.3125l-0.859375 0l0 -6.3125l0.8125 0l0 1.171875q0.359375 -0.578125 0.96875 -0.890625q0.625 -0.328125 1.4375 -0.328125zm10.694916 -2.546875l0 8.90625l-0.828125 0l0 -1.25q-0.375 0.640625 -1.015625 0.984375q-0.625 0.328125 -1.40625 0.328125q-0.890625 0 -1.609375 -0.40625q-0.71875 -0.40625 -1.140625 -1.140625q-0.40625 -0.734375 -0.40625 -1.671875q0 -0.9375 0.40625 -1.671875q0.421875 -0.734375 1.140625 -1.125q0.71875 -0.40625 1.609375 -0.40625q0.765625 0 1.375 0.328125q0.625 0.3125 1.015625 0.921875l0 -3.796875l0.859375 0zm-3.1875 8.203125q0.65625 0 1.1875 -0.296875q0.546875 -0.3125 0.84375 -0.875q0.3125 -0.5625 0.3125 -1.28125q0 -0.71875 -0.3125 -1.28125q-0.296875 -0.5625 -0.84375 -0.859375q-0.53125 -0.3125 -1.1875 -0.3125q-0.671875 0 -1.203125 0.3125q-0.53125 0.296875 -0.84375 0.859375q-0.296875 0.5625 -0.296875 1.28125q0 0.71875 0.296875 1.28125q0.3125 0.5625 0.84375 0.875q0.53125 0.296875 1.203125 0.296875zm5.557953 -5.609375l0.859375 0l0 6.3125l-0.859375 0l0 -6.3125zm0.4375 -1.375q-0.265625 0 -0.453125 -0.171875q-0.171875 -0.1875 -0.171875 -0.4375q0 -0.25 0.171875 -0.421875q0.1875 -0.1875 0.453125 -0.1875q0.25 0 0.4375 0.171875q0.1875 0.171875 0.1875 0.421875q0 0.265625 -0.1875 0.453125q-0.1875 0.171875 -0.4375 0.171875zm6.1186523 7.296875q-0.25 0.21875 -0.609375 0.34375q-0.34375 0.109375 -0.71875 0.109375q-0.890625 0 -1.375 -0.484375q-0.484375 -0.484375 -0.484375 -1.359375l0 -3.8125l-1.125 0l0 -0.71875l1.125 0l0 -1.375l0.859375 0l0 1.375l1.921875 0l0 0.71875l-1.921875 0l0 3.765625q0 0.5625 0.28125 0.859375q0.28125 0.296875 0.8125 0.296875q0.265625 0 0.5 -0.078125q0.25 -0.09375 0.4375 -0.25l0.296875 0.609375zm1.5439148 -5.921875l0.859375 0l0 6.3125l-0.859375 0l0 -6.3125zm0.4375 -1.375q-0.265625 0 -0.453125 -0.171875q-0.171875 -0.1875 -0.171875 -0.4375q0 -0.25 0.171875 -0.421875q0.1875 -0.1875 0.453125 -0.1875q0.25 0 0.4375 0.171875q0.1875 0.171875 0.1875 0.421875q0 0.265625 -0.1875 0.453125q-0.1875 0.171875 -0.4375 0.171875zm5.3686523 7.75q-0.90625 0 -1.640625 -0.40625q-0.734375 -0.421875 -1.15625 -1.15625q-0.421875 -0.734375 -0.421875 -1.65625q0 -0.921875 0.421875 -1.65625q0.421875 -0.734375 1.15625 -1.140625q0.734375 -0.40625 1.640625 -0.40625q0.921875 0 1.640625 0.40625q0.734375 0.40625 1.140625 1.140625q0.421875 0.734375 0.421875 1.65625q0 0.921875 -0.421875 1.65625q-0.40625 0.734375 -1.140625 1.15625q-0.71875 0.40625 -1.640625 0.40625zm0 -0.765625q0.671875 0 1.203125 -0.296875q0.546875 -0.3125 0.84375 -0.875q0.296875 -0.5625 0.296875 -1.28125q0 -0.71875 -0.296875 -1.28125q-0.296875 -0.5625 -0.84375 -0.859375q-0.53125 -0.3125 -1.203125 -0.3125q-0.671875 0 -1.203125 0.3125q-0.53125 0.296875 -0.84375 0.859375q-0.296875 0.5625 -0.296875 1.28125q0 0.71875 0.296875 1.28125q0.3125 0.5625 0.84375 0.875q0.53125 0.296875 1.203125 0.296875zm8.164673 -5.65625q1.1875 0 1.890625 0.6875q0.703125 0.6875 0.703125 2.015625l0 3.65625l-0.859375 0l0 -3.578125q0 -0.984375 -0.5 -1.5q-0.484375 -0.515625 -1.390625 -0.515625q-1.015625 0 -1.609375 0.609375q-0.59375 0.609375 -0.59375 1.671875l0 3.3125l-0.859375 0l0 -6.3125l0.8125 0l0 1.171875q0.359375 -0.578125 0.96875 -0.890625q0.625 -0.328125 1.4375 -0.328125zm9.814941 -2.046875l0 8.40625l-0.859375 0l0 -7.625l-1.984375 0l0 -0.78125l2.84375 0z" fill-rule="nonzero"/><path fill="#000000" fill-opacity="0.0" d="m440.14172 491.52756l192.78741 0l0 48.472443l-192.78741 0z" fill-rule="evenodd"/><path fill="#000000" d="m483.93304 504.42255l0 3.296875l4.34375 0l0 0.765625l-4.34375 0l0 3.5625l-0.875 0l0 -8.40625l5.75 0l0 0.78125l-4.875 0zm8.895691 7.6875q-0.90625 0 -1.640625 -0.40625q-0.734375 -0.421875 -1.15625 -1.15625q-0.421875 -0.734375 -0.421875 -1.65625q0 -0.921875 0.421875 -1.65625q0.421875 -0.734375 1.15625 -1.140625q0.734375 -0.40625 1.640625 -0.40625q0.921875 0 1.640625 0.40625q0.734375 0.40625 1.140625 1.140625q0.421875 0.734375 0.421875 1.65625q0 0.921875 -0.421875 1.65625q-0.40625 0.734375 -1.140625 1.15625q-0.71875 0.40625 -1.640625 0.40625zm0 -0.765625q0.671875 0 1.203125 -0.296875q0.546875 -0.3125 0.84375 -0.875q0.296875 -0.5625 0.296875 -1.28125q0 -0.71875 -0.296875 -1.28125q-0.296875 -0.5625 -0.84375 -0.859375q-0.53125 -0.3125 -1.203125 -0.3125q-0.671875 0 -1.203125 0.3125q-0.53125 0.296875 -0.84375 0.859375q-0.296875 0.5625 -0.296875 1.28125q0 0.71875 0.296875 1.28125q0.3125 0.5625 0.84375 0.875q0.53125 0.296875 1.203125 0.296875zm10.633423 -5.609375l0 6.3125l-0.8125 0l0 -1.15625q-0.34375 0.578125 -0.9375 0.90625q-0.578125 0.3125 -1.328125 0.3125q-1.234375 0 -1.953125 -0.6875q-0.71875 -0.6875 -0.71875 -2.03125l0 -3.65625l0.859375 0l0 3.578125q0 1.0 0.484375 1.515625q0.5 0.515625 1.40625 0.515625q1.0 0 1.578125 -0.609375q0.578125 -0.609375 0.578125 -1.6875l0 -3.3125l0.84375 0zm3.2010498 1.234375q0.296875 -0.640625 0.890625 -0.953125q0.59375 -0.328125 1.484375 -0.328125l0 0.828125l-0.21875 -0.015625q-0.984375 0 -1.546875 0.625q-0.5625 0.609375 -0.5625 1.703125l0 3.21875l-0.859375 0l0 -6.3125l0.8125 0l0 1.234375zm10.393555 -1.28125q0.890625 0 1.609375 0.40625q0.71875 0.390625 1.125 1.125q0.40625 0.734375 0.40625 1.671875q0 0.953125 -0.40625 1.6875q-0.40625 0.71875 -1.125 1.125q-0.703125 0.40625 -1.609375 0.40625q-0.765625 0 -1.390625 -0.3125q-0.609375 -0.328125 -1.0 -0.9375l0 3.515625l-0.859375 0l0 -8.640625l0.8125 0l0 1.25q0.390625 -0.625 1.015625 -0.953125q0.625 -0.34375 1.421875 -0.34375zm-0.0625 5.65625q0.671875 0 1.203125 -0.296875q0.546875 -0.3125 0.84375 -0.875q0.3125 -0.5625 0.3125 -1.28125q0 -0.71875 -0.3125 -1.265625q-0.296875 -0.5625 -0.84375 -0.875q-0.53125 -0.3125 -1.203125 -0.3125q-0.671875 0 -1.203125 0.3125q-0.53125 0.3125 -0.84375 0.875q-0.296875 0.546875 -0.296875 1.265625q0 0.71875 0.296875 1.28125q0.3125 0.5625 0.84375 0.875q0.53125 0.296875 1.203125 0.296875zm7.5266724 0.765625q-0.90625 0 -1.640625 -0.40625q-0.734375 -0.421875 -1.15625 -1.15625q-0.421875 -0.734375 -0.421875 -1.65625q0 -0.921875 0.421875 -1.65625q0.421875 -0.734375 1.15625 -1.140625q0.734375 -0.40625 1.640625 -0.40625q0.921875 0 1.640625 0.40625q0.734375 0.40625 1.140625 1.140625q0.421875 0.734375 0.421875 1.65625q0 0.921875 -0.421875 1.65625q-0.40625 0.734375 -1.140625 1.15625q-0.71875 0.40625 -1.640625 0.40625zm0 -0.765625q0.671875 0 1.203125 -0.296875q0.546875 -0.3125 0.84375 -0.875q0.296875 -0.5625 0.296875 -1.28125q0 -0.71875 -0.296875 -1.28125q-0.296875 -0.5625 -0.84375 -0.859375q-0.53125 -0.3125 -1.203125 -0.3125q-0.671875 0 -1.203125 0.3125q-0.53125 0.296875 -0.84375 0.859375q-0.296875 0.5625 -0.296875 1.28125q0 0.71875 0.296875 1.28125q0.3125 0.5625 0.84375 0.875q0.53125 0.296875 1.203125 0.296875zm6.633423 0.765625q-0.765625 0 -1.46875 -0.21875q-0.703125 -0.234375 -1.09375 -0.5625l0.390625 -0.671875q0.390625 0.3125 0.984375 0.515625q0.609375 0.1875 1.25 0.1875q0.859375 0 1.265625 -0.265625q0.421875 -0.265625 0.421875 -0.765625q0 -0.34375 -0.234375 -0.53125q-0.21875 -0.203125 -0.5625 -0.296875q-0.34375 -0.109375 -0.921875 -0.21875q-0.765625 -0.140625 -1.234375 -0.28125q-0.46875 -0.15625 -0.796875 -0.515625q-0.328125 -0.359375 -0.328125 -1.0q0 -0.796875 0.65625 -1.296875q0.65625 -0.5 1.828125 -0.5q0.609375 0 1.21875 0.171875q0.625 0.15625 1.015625 0.421875l-0.375 0.671875q-0.78125 -0.53125 -1.859375 -0.53125q-0.8125 0 -1.234375 0.296875q-0.40625 0.28125 -0.40625 0.75q0 0.359375 0.234375 0.578125q0.234375 0.203125 0.578125 0.3125q0.359375 0.09375 0.96875 0.203125q0.75 0.140625 1.203125 0.296875q0.46875 0.140625 0.78125 0.484375q0.328125 0.34375 0.328125 0.96875q0 0.828125 -0.6875 1.3125q-0.6875 0.484375 -1.921875 0.484375zm5.868042 0q-0.765625 0 -1.46875 -0.21875q-0.703125 -0.234375 -1.09375 -0.5625l0.390625 -0.671875q0.390625 0.3125 0.984375 0.515625q0.609375 0.1875 1.25 0.1875q0.859375 0 1.265625 -0.265625q0.421875 -0.265625 0.421875 -0.765625q0 -0.34375 -0.234375 -0.53125q-0.21875 -0.203125 -0.5625 -0.296875q-0.34375 -0.109375 -0.921875 -0.21875q-0.765625 -0.140625 -1.234375 -0.28125q-0.46875 -0.15625 -0.796875 -0.515625q-0.328125 -0.359375 -0.328125 -1.0q0 -0.796875 0.65625 -1.296875q0.65625 -0.5 1.828125 -0.5q0.609375 0 1.21875 0.171875q0.625 0.15625 1.015625 0.421875l-0.375 0.671875q-0.78125 -0.53125 -1.859375 -0.53125q-0.8125 0 -1.234375 0.296875q-0.40625 0.28125 -0.40625 0.75q0 0.359375 0.234375 0.578125q0.234375 0.203125 0.578125 0.3125q0.359375 0.09375 0.96875 0.203125q0.75 0.140625 1.203125 0.296875q0.46875 0.140625 0.78125 0.484375q0.328125 0.34375 0.328125 0.96875q0 0.828125 -0.6875 1.3125q-0.6875 0.484375 -1.921875 0.484375zm4.180542 -6.375l0.859375 0l0 6.3125l-0.859375 0l0 -6.3125zm0.4375 -1.375q-0.265625 0 -0.453125 -0.171875q-0.171875 -0.1875 -0.171875 -0.4375q0 -0.25 0.171875 -0.421875q0.1875 -0.1875 0.453125 -0.1875q0.25 0 0.4375 0.171875q0.1875 0.171875 0.1875 0.421875q0 0.265625 -0.1875 0.453125q-0.1875 0.171875 -0.4375 0.171875zm6.0405273 1.328125q0.890625 0 1.609375 0.40625q0.71875 0.390625 1.125 1.125q0.40625 0.734375 0.40625 1.671875q0 0.9375 -0.40625 1.671875q-0.40625 0.734375 -1.125 1.140625q-0.71875 0.40625 -1.609375 0.40625q-0.796875 0 -1.421875 -0.328125q-0.625 -0.34375 -1.015625 -0.984375l0 1.25l-0.8125 0l0 -8.90625l0.859375 0l0 3.796875q0.390625 -0.609375 1.0 -0.921875q0.625 -0.328125 1.390625 -0.328125zm-0.0625 5.65625q0.671875 0 1.203125 -0.296875q0.546875 -0.3125 0.84375 -0.875q0.3125 -0.5625 0.3125 -1.28125q0 -0.71875 -0.3125 -1.28125q-0.296875 -0.5625 -0.84375 -0.859375q-0.53125 -0.3125 -1.203125 -0.3125q-0.671875 0 -1.203125 0.3125q-0.53125 0.296875 -0.84375 0.859375q-0.296875 0.5625 -0.296875 1.28125q0 0.71875 0.296875 1.28125q0.3125 0.5625 0.84375 0.875q0.53125 0.296875 1.203125 0.296875zm4.9485474 -8.203125l0.859375 0l0 8.90625l-0.859375 0l0 -8.90625zm8.728027 6.015625l-5.28125 0q0.0625 0.984375 0.75 1.59375q0.6875 0.59375 1.734375 0.59375q0.578125 0 1.0625 -0.203125q0.5 -0.203125 0.859375 -0.625l0.484375 0.5625q-0.421875 0.5 -1.046875 0.765625q-0.625 0.265625 -1.390625 0.265625q-0.96875 0 -1.71875 -0.40625q-0.75 -0.421875 -1.171875 -1.15625q-0.421875 -0.734375 -0.421875 -1.65625q0 -0.921875 0.40625 -1.65625q0.40625 -0.734375 1.109375 -1.140625q0.703125 -0.40625 1.578125 -0.40625q0.875 0 1.5625 0.40625q0.703125 0.40625 1.09375 1.140625q0.40625 0.71875 0.40625 1.65625l-0.015625 0.265625zm-3.046875 -2.734375q-0.921875 0 -1.546875 0.578125q-0.609375 0.578125 -0.6875 1.515625l4.46875 0q-0.078125 -0.9375 -0.703125 -1.515625q-0.609375 -0.578125 -1.53125 -0.578125zm10.282715 2.453125l-1.484375 1.375l0 1.796875l-0.859375 0l0 -8.90625l0.859375 0l0 6.03125l3.765625 -3.4375l1.046875 0l-2.703125 2.578125l2.953125 3.734375l-1.03125 0l-2.546875 -3.171875zm10.116333 0.28125l-5.28125 0q0.0625 0.984375 0.75 1.59375q0.6875 0.59375 1.734375 0.59375q0.578125 0 1.0625 -0.203125q0.5 -0.203125 0.859375 -0.625l0.484375 0.5625q-0.421875 0.5 -1.046875 0.765625q-0.625 0.265625 -1.390625 0.265625q-0.96875 0 -1.71875 -0.40625q-0.75 -0.421875 -1.171875 -1.15625q-0.421875 -0.734375 -0.421875 -1.65625q0 -0.921875 0.40625 -1.65625q0.40625 -0.734375 1.109375 -1.140625q0.703125 -0.40625 1.578125 -0.40625q0.875 0 1.5625 0.40625q0.703125 0.40625 1.09375 1.140625q0.40625 0.71875 0.40625 1.65625l-0.015625 0.265625zm-3.046875 -2.734375q-0.921875 0 -1.546875 0.578125q-0.609375 0.578125 -0.6875 1.515625l4.46875 0q-0.078125 -0.9375 -0.703125 -1.515625q-0.609375 -0.578125 -1.53125 -0.578125zm9.971802 -0.6875l-3.140625 7.0625q-0.390625 0.890625 -0.90625 1.265625q-0.5 0.375 -1.203125 0.375q-0.453125 0 -0.859375 -0.15625q-0.390625 -0.140625 -0.671875 -0.421875l0.390625 -0.640625q0.484375 0.484375 1.15625 0.484375q0.4375 0 0.734375 -0.25q0.3125 -0.234375 0.578125 -0.8125l0.265625 -0.609375l-2.8125 -6.296875l0.890625 0l2.375 5.359375l2.375 -5.359375l0.828125 0zm2.8226318 6.375q-0.765625 0 -1.46875 -0.21875q-0.703125 -0.234375 -1.09375 -0.5625l0.390625 -0.671875q0.390625 0.3125 0.984375 0.515625q0.609375 0.1875 1.25 0.1875q0.859375 0 1.265625 -0.265625q0.421875 -0.265625 0.421875 -0.765625q0 -0.34375 -0.234375 -0.53125q-0.21875 -0.203125 -0.5625 -0.296875q-0.34375 -0.109375 -0.921875 -0.21875q-0.765625 -0.140625 -1.234375 -0.28125q-0.46875 -0.15625 -0.796875 -0.515625q-0.328125 -0.359375 -0.328125 -1.0q0 -0.796875 0.65625 -1.296875q0.65625 -0.5 1.828125 -0.5q0.609375 0 1.21875 0.171875q0.625 0.15625 1.015625 0.421875l-0.375 0.671875q-0.78125 -0.53125 -1.859375 -0.53125q-0.8125 0 -1.234375 0.296875q-0.40625 0.28125 -0.40625 0.75q0 0.359375 0.234375 0.578125q0.234375 0.203125 0.578125 0.3125q0.359375 0.09375 0.96875 0.203125q0.75 0.140625 1.203125 0.296875q0.46875 0.140625 0.78125 0.484375q0.328125 0.34375 0.328125 0.96875q0 0.828125 -0.6875 1.3125q-0.6875 0.484375 -1.921875 0.484375z" fill-rule="nonzero"/><path fill="#000000" d="m487.49033 518.1976q-0.5625 0 -0.84375 0.3125q-0.28125 0.296875 -0.28125 0.875l0 0.75l1.953125 0l0 0.71875l-1.921875 0l0 5.59375l-0.859375 0l0 -5.59375l-1.125 0l0 -0.71875l1.125 0l0 -0.78125q0 -0.859375 0.5 -1.359375q0.5 -0.515625 1.40625 -0.515625q0.359375 0 0.6875 0.109375q0.34375 0.09375 0.578125 0.296875l-0.28125 0.625q-0.375 -0.3125 -0.9375 -0.3125zm4.444397 8.3125q-0.90625 0 -1.640625 -0.40625q-0.734375 -0.421875 -1.15625 -1.15625q-0.421875 -0.734375 -0.421875 -1.65625q0 -0.921875 0.421875 -1.65625q0.421875 -0.734375 1.15625 -1.140625q0.734375 -0.40625 1.640625 -0.40625q0.921875 0 1.640625 0.40625q0.734375 0.40625 1.140625 1.140625q0.421875 0.734375 0.421875 1.65625q0 0.921875 -0.421875 1.65625q-0.40625 0.734375 -1.140625 1.15625q-0.71875 0.40625 -1.640625 0.40625zm0 -0.765625q0.671875 0 1.203125 -0.296875q0.546875 -0.3125 0.84375 -0.875q0.296875 -0.5625 0.296875 -1.28125q0 -0.71875 -0.296875 -1.28125q-0.296875 -0.5625 -0.84375 -0.859375q-0.53125 -0.3125 -1.203125 -0.3125q-0.671875 0 -1.203125 0.3125q-0.53125 0.296875 -0.84375 0.859375q-0.296875 0.5625 -0.296875 1.28125q0 0.71875 0.296875 1.28125q0.3125 0.5625 0.84375 0.875q0.53125 0.296875 1.203125 0.296875zm5.758423 -4.375q0.296875 -0.640625 0.890625 -0.953125q0.59375 -0.328125 1.484375 -0.328125l0 0.828125l-0.21875 -0.015625q-0.984375 0 -1.546875 0.625q-0.5625 0.609375 -0.5625 1.703125l0 3.21875l-0.859375 0l0 -6.3125l0.8125 0l0 1.234375zm15.018524 -1.28125q1.1875 0 1.859375 0.6875q0.6875 0.6875 0.6875 2.015625l0 3.65625l-0.859375 0l0 -3.578125q0 -0.984375 -0.484375 -1.5q-0.46875 -0.515625 -1.328125 -0.515625q-0.9843445 0 -1.5468445 0.609375q-0.5625 0.609375 -0.5625 1.671875l0 3.3125l-0.859375 0l0 -3.578125q0 -0.984375 -0.46875 -1.5q-0.46875 -0.515625 -1.34375 -0.515625q-0.96875 0 -1.546875 0.609375q-0.5625 0.609375 -0.5625 1.671875l0 3.3125l-0.859375 0l0 -6.3125l0.8125 0l0 1.15625q0.34375 -0.578125 0.9375 -0.890625q0.609375 -0.3125 1.375 -0.3125q0.796875 0 1.375 0.34375q0.59375 0.328125 0.875 0.984375q0.34375 -0.625 1.0 -0.96875q0.65625 -0.359375 1.4999695 -0.359375zm7.0602417 0q1.234375 0 1.890625 0.625q0.671875 0.609375 0.671875 1.828125l0 3.90625l-0.8125 0l0 -0.984375q-0.296875 0.5 -0.859375 0.78125q-0.546875 0.265625 -1.3125 0.265625q-1.0625 0 -1.6875 -0.5q-0.625 -0.515625 -0.625 -1.34375q0 -0.796875 0.578125 -1.28125q0.59375 -0.5 1.859375 -0.5l2.0 0l0 -0.390625q0 -0.8125 -0.453125 -1.234375q-0.453125 -0.421875 -1.328125 -0.421875q-0.59375 0 -1.15625 0.203125q-0.546875 0.1875 -0.9375 0.53125l-0.390625 -0.640625q0.484375 -0.40625 1.15625 -0.625q0.671875 -0.21875 1.40625 -0.21875zm-0.296875 5.75q0.71875 0 1.234375 -0.328125q0.515625 -0.328125 0.765625 -0.953125l0 -1.03125l-1.96875 0q-1.625 0 -1.625 1.125q0 0.546875 0.421875 0.875q0.421875 0.3125 1.171875 0.3125zm8.501892 0.21875q-0.25 0.21875 -0.609375 0.34375q-0.34375 0.109375 -0.71875 0.109375q-0.890625 0 -1.375 -0.484375q-0.484375 -0.484375 -0.484375 -1.359375l0 -3.8125l-1.125 0l0 -0.71875l1.125 0l0 -1.375l0.859375 0l0 1.375l1.921875 0l0 0.71875l-1.921875 0l0 3.765625q0 0.5625 0.28125 0.859375q0.28125 0.296875 0.8125 0.296875q0.265625 0 0.5 -0.078125q0.25 -0.09375 0.4375 -0.25l0.296875 0.609375zm3.925293 0.453125q-0.921875 0 -1.671875 -0.40625q-0.734375 -0.40625 -1.15625 -1.140625q-0.421875 -0.75 -0.421875 -1.671875q0 -0.921875 0.421875 -1.65625q0.421875 -0.734375 1.15625 -1.140625q0.75 -0.40625 1.671875 -0.40625q0.828125 0 1.46875 0.328125q0.640625 0.3125 1.015625 0.921875l-0.640625 0.421875q-0.3125 -0.453125 -0.796875 -0.6875q-0.46875 -0.234375 -1.046875 -0.234375q-0.671875 0 -1.21875 0.3125q-0.546875 0.296875 -0.859375 0.859375q-0.296875 0.5625 -0.296875 1.28125q0 0.734375 0.296875 1.296875q0.3125 0.546875 0.859375 0.859375q0.546875 0.296875 1.21875 0.296875q0.578125 0 1.046875 -0.21875q0.484375 -0.234375 0.796875 -0.703125l0.640625 0.4375q-0.375 0.609375 -1.03125 0.9375q-0.640625 0.3125 -1.453125 0.3125zm7.26947 -6.421875q1.1875 0 1.890625 0.6875q0.703125 0.6875 0.703125 2.015625l0 3.65625l-0.859375 0l0 -3.578125q0 -0.984375 -0.5 -1.5q-0.484375 -0.515625 -1.390625 -0.515625q-1.015625 0 -1.609375 0.609375q-0.59375 0.609375 -0.59375 1.671875l0 3.3125l-0.859375 0l0 -8.90625l0.859375 0l0 3.703125q0.34375 -0.5625 0.953125 -0.859375q0.609375 -0.296875 1.40625 -0.296875zm4.9052734 0.046875l0.859375 0l0 6.3125l-0.859375 0l0 -6.3125zm0.4375 -1.375q-0.265625 0 -0.453125 -0.171875q-0.171875 -0.1875 -0.171875 -0.4375q0 -0.25 0.171875 -0.421875q0.1875 -0.1875 0.453125 -0.1875q0.25 0 0.4375 0.171875q0.1875 0.171875 0.1875 0.421875q0 0.265625 -0.1875 0.453125q-0.1875 0.171875 -0.4375 0.171875zm6.0092773 1.328125q1.1875 0 1.890625 0.6875q0.703125 0.6875 0.703125 2.015625l0 3.65625l-0.859375 0l0 -3.578125q0 -0.984375 -0.5 -1.5q-0.484375 -0.515625 -1.390625 -0.515625q-1.015625 0 -1.609375 0.609375q-0.59375 0.609375 -0.59375 1.671875l0 3.3125l-0.859375 0l0 -6.3125l0.8125 0l0 1.171875q0.359375 -0.578125 0.96875 -0.890625q0.625 -0.328125 1.4375 -0.328125zm10.773071 0.046875l0 5.546875q0 1.609375 -0.796875 2.375q-0.78125 0.78125 -2.359375 0.78125q-0.875 0 -1.671875 -0.265625q-0.78125 -0.25 -1.265625 -0.703125l0.4375 -0.65625q0.453125 0.40625 1.09375 0.625q0.65625 0.234375 1.390625 0.234375q1.1875 0 1.75 -0.5625q0.578125 -0.546875 0.578125 -1.71875l0 -0.8125q-0.40625 0.609375 -1.046875 0.921875q-0.640625 0.3125 -1.421875 0.3125q-0.890625 0 -1.625 -0.390625q-0.71875 -0.390625 -1.140625 -1.09375q-0.40625 -0.703125 -0.40625 -1.59375q0 -0.890625 0.40625 -1.578125q0.421875 -0.703125 1.140625 -1.078125q0.71875 -0.390625 1.625 -0.390625q0.8125 0 1.453125 0.328125q0.640625 0.3125 1.046875 0.9375l0 -1.21875l0.8125 0zm-3.234375 5.3125q0.6875 0 1.234375 -0.28125q0.5625 -0.296875 0.859375 -0.828125q0.3125 -0.53125 0.3125 -1.203125q0 -0.671875 -0.3125 -1.1875q-0.296875 -0.53125 -0.84375 -0.8125q-0.546875 -0.296875 -1.25 -0.296875q-0.671875 0 -1.21875 0.28125q-0.546875 0.28125 -0.859375 0.8125q-0.296875 0.53125 -0.296875 1.203125q0 0.671875 0.296875 1.203125q0.3125 0.53125 0.859375 0.828125q0.546875 0.28125 1.21875 0.28125zm12.016724 -5.359375q0.890625 0 1.609375 0.40625q0.71875 0.390625 1.125 1.125q0.40625 0.734375 0.40625 1.671875q0 0.953125 -0.40625 1.6875q-0.40625 0.71875 -1.125 1.125q-0.703125 0.40625 -1.609375 0.40625q-0.765625 0 -1.390625 -0.3125q-0.609375 -0.328125 -1.0 -0.9375l0 3.515625l-0.859375 0l0 -8.640625l0.8125 0l0 1.25q0.390625 -0.625 1.015625 -0.953125q0.625 -0.34375 1.421875 -0.34375zm-0.0625 5.65625q0.671875 0 1.203125 -0.296875q0.546875 -0.3125 0.84375 -0.875q0.3125 -0.5625 0.3125 -1.28125q0 -0.71875 -0.3125 -1.265625q-0.296875 -0.5625 -0.84375 -0.875q-0.53125 -0.3125 -1.203125 -0.3125q-0.671875 0 -1.203125 0.3125q-0.53125 0.3125 -0.84375 0.875q-0.296875 0.546875 -0.296875 1.265625q0 0.71875 0.296875 1.28125q0.3125 0.5625 0.84375 0.875q0.53125 0.296875 1.203125 0.296875zm7.1156616 -5.65625q1.234375 0 1.890625 0.625q0.671875 0.609375 0.671875 1.828125l0 3.90625l-0.8125 0l0 -0.984375q-0.296875 0.5 -0.859375 0.78125q-0.546875 0.265625 -1.3125 0.265625q-1.0625 0 -1.6875 -0.5q-0.625 -0.515625 -0.625 -1.34375q0 -0.796875 0.578125 -1.28125q0.59375 -0.5 1.859375 -0.5l2.0 0l0 -0.390625q0 -0.8125 -0.453125 -1.234375q-0.453125 -0.421875 -1.328125 -0.421875q-0.59375 0 -1.15625 0.203125q-0.546875 0.1875 -0.9375 0.53125l-0.390625 -0.640625q0.484375 -0.40625 1.15625 -0.625q0.671875 -0.21875 1.40625 -0.21875zm-0.296875 5.75q0.71875 0 1.234375 -0.328125q0.515625 -0.328125 0.765625 -0.953125l0 -1.03125l-1.96875 0q-1.625 0 -1.625 1.125q0 0.546875 0.421875 0.875q0.421875 0.3125 1.171875 0.3125zm5.173828 -5.703125l0.859375 0l0 6.3125l-0.859375 0l0 -6.3125zm0.4375 -1.375q-0.265625 0 -0.453125 -0.171875q-0.171875 -0.1875 -0.171875 -0.4375q0 -0.25 0.171875 -0.421875q0.1875 -0.1875 0.453125 -0.1875q0.25 0 0.4375 0.171875q0.1875 0.171875 0.1875 0.421875q0 0.265625 -0.1875 0.453125q-0.1875 0.171875 -0.4375 0.171875zm3.6030273 2.609375q0.296875 -0.640625 0.890625 -0.953125q0.59375 -0.328125 1.484375 -0.328125l0 0.828125l-0.21875 -0.015625q-0.984375 0 -1.546875 0.625q-0.5625 0.609375 -0.5625 1.703125l0 3.21875l-0.859375 0l0 -6.3125l0.8125 0l0 1.234375z" fill-rule="nonzero"/></g></svg>